<mxfile host="65bd71144e">
    <diagram id="OvUeN1fUbP1yOYvhclIw" name="Page-1">
        <mxGraphModel dx="195" dy="330" grid="1" gridSize="10" guides="1" tooltips="1" connect="1" arrows="1" fold="1" page="1" pageScale="1" pageWidth="850" pageHeight="1100" math="0" shadow="0">
            <root>
                <mxCell id="0"/>
                <mxCell id="1" parent="0"/>
                <mxCell id="64" value="C3'" style="ellipse;whiteSpace=wrap;html=1;aspect=fixed;fillColor=#008a00;strokeColor=#005700;fontColor=#ffffff;fontStyle=1" parent="1" vertex="1">
                    <mxGeometry x="490" y="340" width="60" height="60" as="geometry"/>
                </mxCell>
                <mxCell id="66" value="C3" style="ellipse;whiteSpace=wrap;html=1;aspect=fixed;fillColor=#008a00;strokeColor=#005700;fontColor=#ffffff;fontStyle=1" parent="1" vertex="1">
                    <mxGeometry x="365" y="340" width="60" height="60" as="geometry"/>
                </mxCell>
                <mxCell id="74" value="!=" style="text;html=1;strokeColor=none;fillColor=none;align=center;verticalAlign=middle;whiteSpace=wrap;rounded=0;fontStyle=1;fontSize=22;fontFamily=Consolas;" vertex="1" parent="1">
                    <mxGeometry x="425" y="355" width="60" height="30" as="geometry"/>
                </mxCell>
            </root>
        </mxGraphModel>
    </diagram>
</mxfile>